<svg width="20" height="20" viewBox="0 0 20 20" fill="none" xmlns="http://www.w3.org/2000/svg">
<path d="M2.28516 10.625H13.1055C13.2878 10.625 13.4375 10.5632 13.5547 10.4395C13.6719 10.3158 13.7305 10.166 13.7305 9.99023C13.7305 9.81445 13.6719 9.66797 13.5547 9.55078C13.4375 9.43359 13.2878 9.375 13.1055 9.375H2.32422L4.58984 7.10938C4.70703 6.99219 4.76562 6.8457 4.76562 6.66992C4.76562 6.49414 4.70703 6.34766 4.58984 6.23047C4.4987 6.15234 4.40104 6.09701 4.29688 6.06445C4.19271 6.0319 4.08529 6.0319 3.97461 6.06445C3.86393 6.09701 3.76953 6.15234 3.69141 6.23047L0 10.0195L3.69141 13.8086C3.75651 13.8607 3.82812 13.903 3.90625 13.9355C3.98438 13.9681 4.0625 13.9844 4.14062 13.9844C4.3099 13.9844 4.45964 13.9258 4.58984 13.8086C4.62891 13.7695 4.66146 13.724 4.6875 13.6719C4.71354 13.6198 4.73307 13.5677 4.74609 13.5156C4.75911 13.4635 4.76562 13.4115 4.76562 13.3594C4.76562 13.3073 4.75911 13.2552 4.74609 13.2031C4.73307 13.151 4.71354 13.099 4.6875 13.0469C4.66146 12.9948 4.62891 12.9492 4.58984 12.9102L2.28516 10.625ZM18.75 0H8.125C7.77344 0 7.47721 0.120443 7.23633 0.361328C6.99544 0.602214 6.875 0.898438 6.875 1.25V6.875H8.125V2.01172C8.125 1.88151 8.15755 1.75781 8.22266 1.64062C8.28776 1.52344 8.37891 1.42904 8.49609 1.35742C8.61328 1.28581 8.74349 1.25 8.88672 1.25H17.9688C18.1771 1.25 18.3529 1.32487 18.4961 1.47461C18.6393 1.62435 18.7109 1.80339 18.7109 2.01172L18.7305 17.9883C18.7305 18.1966 18.6589 18.3757 18.5156 18.5254C18.3724 18.6751 18.1966 18.75 17.9883 18.75H8.88672C8.67839 18.75 8.49935 18.6751 8.34961 18.5254C8.19987 18.3757 8.125 18.1966 8.125 17.9883V13.1055H6.875V18.75C6.875 19.1016 6.99544 19.3978 7.23633 19.6387C7.47721 19.8796 7.77344 20 8.125 20H18.75C18.8281 20 18.9095 19.9902 18.9941 19.9707C19.0788 19.9512 19.1569 19.9284 19.2285 19.9023C19.3001 19.8763 19.3717 19.8405 19.4434 19.7949C19.515 19.7493 19.5768 19.6973 19.6289 19.6387C19.681 19.5801 19.7298 19.5182 19.7754 19.4531C19.821 19.388 19.86 19.3164 19.8926 19.2383C19.9251 19.1602 19.9512 19.082 19.9707 19.0039C19.9902 18.9258 20 18.8411 20 18.75V1.25C20 0.742188 19.7721 0.371094 19.3164 0.136719C19.1341 0.0455729 18.9453 0 18.75 0Z" fill="black"/>
</svg>
